<svg width="100" height="74" viewBox="0 0 100 74" fill="none" xmlns="http://www.w3.org/2000/svg">
<g opacity="0.5">
<path d="M93.0618 23.3463H7V5H93.0618V23.3463Z" fill="white"/>
<path d="M18.1517 18.8336C20.7325 18.8336 22.8246 16.7471 22.8246 14.1731C22.8246 11.5992 20.7325 9.51263 18.1517 9.51263C15.571 9.51263 13.4789 11.5992 13.4789 14.1731C13.4789 16.7471 15.571 18.8336 18.1517 18.8336Z" fill="#7C5BF3"/>
<path d="M28.9438 11.0662C28.7373 11.0662 28.5392 11.148 28.3931 11.2937C28.2471 11.4393 28.165 11.6369 28.165 11.8429C28.165 12.0489 28.2471 12.2465 28.3931 12.3922C28.5392 12.5378 28.7373 12.6197 28.9438 12.6197H85.8058C86.012 12.6192 86.2097 12.5371 86.3553 12.3915C86.501 12.2459 86.5828 12.0486 86.5828 11.8429C86.5828 11.6372 86.501 11.4399 86.3553 11.2943C86.2097 11.1487 86.012 11.0666 85.8058 11.0662H28.9438Z" fill="#3F3D56"/>
<path d="M28.9438 15.7266C28.7372 15.7262 28.539 15.8076 28.3926 15.953C28.2462 16.0983 28.1638 16.2957 28.1633 16.5017C28.1629 16.7077 28.2445 16.9055 28.3903 17.0515C28.536 17.1974 28.7339 17.2797 28.9405 17.2801H64.8892C64.9916 17.2803 65.093 17.2603 65.1877 17.2214C65.2823 17.1824 65.3683 17.1252 65.4408 17.0531C65.5132 16.9809 65.5707 16.8952 65.6099 16.8009C65.6492 16.7066 65.6693 16.6055 65.6693 16.5034C65.6693 16.4013 65.6492 16.3001 65.6099 16.2058C65.5707 16.1115 65.5132 16.0258 65.4408 15.9537C65.3683 15.8815 65.2823 15.8243 65.1877 15.7854C65.093 15.7464 64.9916 15.7265 64.8892 15.7266H28.9438Z" fill="#3F3D56"/>
<path d="M93.0618 19.3463C93.0618 21.5554 91.2709 23.3463 89.0618 23.3463H11C8.79086 23.3463 7 21.5554 7 19.3463V9C7 6.79086 8.79086 5 11 5H89.0618C91.2709 5 93.0618 6.79086 93.0618 9V19.3463ZM8.31392 18.0358C8.31392 20.245 10.1048 22.0358 12.3139 22.0358H87.7479C89.957 22.0358 91.7479 20.245 91.7479 18.0358V10.3104C91.7479 8.10131 89.957 6.31045 87.7479 6.31045H12.3139C10.1048 6.31045 8.31392 8.10131 8.31392 10.3105V18.0358Z" fill="#CCCCCC"/>
<path d="M93.0618 46.2792H7V27.9329H93.0618V46.2792Z" fill="white"/>
<path d="M18.1517 41.7665C20.7325 41.7665 22.8246 39.6799 22.8246 37.106C22.8246 34.5321 20.7325 32.4455 18.1517 32.4455C15.571 32.4455 13.4789 34.5321 13.4789 37.106C13.4789 39.6799 15.571 41.7665 18.1517 41.7665Z" fill="#E6E6E6"/>
<path d="M28.9438 33.999C28.7373 33.999 28.5392 34.0809 28.3931 34.2265C28.2471 34.3722 28.165 34.5698 28.165 34.7758C28.165 34.9818 28.2471 35.1793 28.3931 35.325C28.5392 35.4707 28.7373 35.5525 28.9438 35.5525H85.8058C86.012 35.552 86.2097 35.47 86.3553 35.3244C86.501 35.1787 86.5828 34.9815 86.5828 34.7758C86.5828 34.5701 86.501 34.3728 86.3553 34.2272C86.2097 34.0816 86.012 33.9995 85.8058 33.999H28.9438Z" fill="#E6E6E6"/>
<path d="M28.9438 38.6595C28.7372 38.6591 28.539 38.7405 28.3926 38.8859C28.2462 39.0312 28.1638 39.2286 28.1633 39.4346C28.1629 39.6406 28.2445 39.8384 28.3903 39.9844C28.536 40.1303 28.7339 40.2126 28.9405 40.213H64.8892C64.9916 40.2132 65.093 40.1932 65.1877 40.1543C65.2823 40.1153 65.3683 40.0581 65.4408 39.986C65.5132 39.9138 65.5707 39.8281 65.6099 39.7338C65.6492 39.6395 65.6693 39.5384 65.6693 39.4363C65.6693 39.3341 65.6492 39.233 65.6099 39.1387C65.5707 39.0444 65.5132 38.9587 65.4408 38.8866C65.3683 38.8144 65.2823 38.7572 65.1877 38.7183C65.093 38.6793 64.9916 38.6593 64.8892 38.6595H28.9438Z" fill="#E6E6E6"/>
<path d="M93.0618 42.2792C93.0618 44.4883 91.2709 46.2792 89.0618 46.2792H11C8.79087 46.2792 7 44.4883 7 42.2792V31.9329C7 29.7237 8.79086 27.9329 11 27.9329H89.0618C91.2709 27.9329 93.0618 29.7237 93.0618 31.9329V42.2792ZM8.31392 40.9687C8.31392 43.1778 10.1048 44.9687 12.3139 44.9687H87.7479C89.957 44.9687 91.7479 43.1778 91.7479 40.9687V33.2433C91.7479 31.0342 89.957 29.2433 87.7479 29.2433H12.3139C10.1048 29.2433 8.31392 31.0342 8.31392 33.2433V40.9687Z" fill="#E6E6E6"/>
<path d="M93.0618 69.2121H7V50.8658H93.0618V69.2121Z" fill="white"/>
<path d="M18.1517 64.6994C20.7325 64.6994 22.8246 62.6128 22.8246 60.0389C22.8246 57.465 20.7325 55.3784 18.1517 55.3784C15.571 55.3784 13.4789 57.465 13.4789 60.0389C13.4789 62.6128 15.571 64.6994 18.1517 64.6994Z" fill="#E6E6E6"/>
<path d="M28.9438 56.9319C28.7373 56.9319 28.5392 57.0137 28.3931 57.1594C28.2471 57.3051 28.165 57.5026 28.165 57.7086C28.165 57.9146 28.2471 58.1122 28.3931 58.2579C28.5392 58.4035 28.7373 58.4854 28.9438 58.4854H85.8058C86.012 58.4849 86.2097 58.4028 86.3553 58.2572C86.501 58.1116 86.5828 57.9143 86.5828 57.7086C86.5828 57.5029 86.501 57.3057 86.3553 57.16C86.2097 57.0144 86.012 56.9324 85.8058 56.9319H28.9438Z" fill="#E6E6E6"/>
<path d="M28.9438 61.5924C28.7372 61.5919 28.539 61.6734 28.3926 61.8187C28.2462 61.9641 28.1638 62.1615 28.1633 62.3675C28.1629 62.5735 28.2445 62.7712 28.3903 62.9172C28.536 63.0632 28.7339 63.1454 28.9405 63.1459H64.8892C64.9916 63.146 65.093 63.1261 65.1877 63.0871C65.2823 63.0482 65.3683 62.991 65.4408 62.9188C65.5132 62.8467 65.5707 62.761 65.6099 62.6667C65.6492 62.5724 65.6693 62.4712 65.6693 62.3691C65.6693 62.267 65.6492 62.1659 65.6099 62.0716C65.5707 61.9773 65.5132 61.8916 65.4408 61.8194C65.3683 61.7473 65.2823 61.6901 65.1877 61.6511C65.093 61.6122 64.9916 61.5922 64.8892 61.5924H28.9438Z" fill="#E6E6E6"/>
<path d="M93.0618 65.2121C93.0618 67.4212 91.2709 69.2121 89.0618 69.2121H11C8.79086 69.2121 7 67.4212 7 65.2121V54.8658C7 52.6566 8.79086 50.8658 11 50.8658H89.0618C91.2709 50.8658 93.0618 52.6566 93.0618 54.8658V65.2121ZM8.31392 63.9016C8.31392 66.1107 10.1048 67.9016 12.3139 67.9016H87.7479C89.957 67.9016 91.7479 66.1107 91.7479 63.9016V56.1762C91.7479 53.9671 89.957 52.1762 87.7479 52.1762H12.3139C10.1048 52.1762 8.31392 53.9671 8.31392 56.1762V63.9016Z" fill="#E6E6E6"/>
</g>
</svg>
